<?xml version="1.0" standalone="no"?>
<!DOCTYPE svg PUBLIC "-//W3C//DTD SVG 20010904//EN"
 "http://www.w3.org/TR/2001/REC-SVG-20010904/DTD/svg10.dtd">
<svg version="1.0" xmlns="http://www.w3.org/2000/svg"
 width="512.000000pt" height="512.000000pt" viewBox="0 0 512.000000 512.000000"
 preserveAspectRatio="xMidYMid meet">

<g transform="translate(0.000000,512.000000) scale(0.100000,-0.100000)"
fill="#000000" stroke="none">
<path d="M1736 3688 c-12 -47 -12 -47 125 -50 113 -3 133 -6 143 -20 8 -14
-13 -113 -98 -455 -132 -530 -125 -503 -136 -503 -4 0 -12 15 -15 33 -19 87
-97 182 -177 217 -72 31 -203 25 -296 -13 -133 -55 -289 -186 -389 -328 -94
-133 -178 -343 -204 -513 -16 -99 -6 -275 20 -357 81 -257 320 -366 551 -253
59 29 96 58 173 135 60 61 97 92 97 81 0 -9 -11 -60 -25 -112 -14 -52 -25 -98
-25 -102 0 -5 103 -8 230 -8 l229 0 9 33 8 32 -95 5 c-53 3 -102 9 -108 13 -7
5 -13 21 -13 38 0 22 496 2033 526 2132 5 16 -12 17 -259 17 l-265 0 -6 -22z
m-150 -874 c90 -51 142 -191 131 -348 -3 -47 -30 -177 -62 -306 -66 -263 -116
-381 -212 -494 -65 -78 -162 -150 -226 -167 -59 -16 -151 -7 -185 18 -36 27
-69 77 -84 127 -21 71 -14 265 16 407 77 376 214 658 363 750 85 53 183 58
259 13z"/>
<path d="M2801 3673 c-6 -21 -11 -41 -11 -45 0 -5 47 -8 104 -8 128 0 163 -7
182 -35 13 -20 -6 -104 -231 -1006 -235 -940 -247 -985 -275 -1011 -30 -28
-32 -28 -165 -28 l-134 0 -10 -37 c-6 -21 -11 -44 -11 -50 0 -20 1122 -18
1245 2 370 60 641 280 726 590 58 213 -24 411 -212 510 -38 20 -97 42 -130 49
-33 6 -59 16 -59 21 1 6 29 18 62 27 140 39 286 128 389 235 114 119 171 247
172 388 1 116 -27 181 -112 265 -76 76 -159 121 -275 150 -75 19 -112 20 -662
20 l-583 0 -10 -37z m1187 -88 c198 -89 235 -315 97 -600 -81 -169 -203 -268
-362 -294 -42 -7 -163 -11 -314 -9 l-246 3 107 432 c59 237 114 443 124 457 9
14 29 28 44 32 15 3 32 8 37 10 6 2 109 2 230 1 217 -3 221 -4 283 -32z m-257
-1033 c72 -29 131 -80 161 -140 34 -69 32 -228 -6 -365 -63 -234 -160 -369
-322 -450 -98 -49 -153 -57 -401 -57 -252 0 -267 3 -266 56 1 23 221 924 238
972 4 11 56 13 273 10 247 -4 271 -6 323 -26z"/>
</g>
</svg>
